<svg width="37" height="32" viewBox="0 0 37 32" fill="none" xmlns="http://www.w3.org/2000/svg">
<path d="M23.1542 15.1286L19.553 22.2356C19.1187 23.0928 17.8612 23.0656 17.463 22.191L13.3472 13.1643L11.1754 18.2892L4.08573 18.2857L16.8342 31.2998C17.7492 32.2334 19.2451 32.2334 20.1608 31.2998L32.9093 18.2857L24.8078 18.286L23.1542 15.1286ZM33.4744 2.2044C29.5458 -1.15128 23.5373 -0.545572 19.9238 3.13725L18.5 4.58938L17.0763 3.13725C13.4628 -0.545572 7.45714 -1.15128 3.52636 2.2044C-0.624847 5.75008 -1.09677 11.8286 2.03542 16H9.6238L12.2205 9.83933C12.6185 8.91934 13.9304 8.90219 14.3553 9.81254L18.5622 19.0553L22.1085 12.0554C22.5337 11.2161 23.7548 11.2161 24.1805 12.0554L26.1802 16.0018H34.961C38.0997 11.8286 37.6228 5.75008 33.4744 2.2044Z" fill="#06BBCC"/>
</svg>
