<svg width="1782" height="455" viewBox="0 0 1782 455" fill="none" xmlns="http://www.w3.org/2000/svg">
<path d="M563.965 230.342C563.965 223.646 564.657 217.697 566.04 212.495C567.424 207.293 569.277 202.645 571.602 198.55C573.981 194.399 576.748 190.775 579.902 187.676C583.112 184.577 586.543 182.004 590.195 179.956C597.389 175.861 604.473 173.813 611.445 173.813C618.418 173.813 624.007 175.059 628.213 177.549C632.419 179.984 635.85 183.249 638.506 187.344C643.431 195.146 645.894 205.522 645.894 218.472C645.894 223.286 643.874 225.749 639.834 225.859L581.895 227.104C582.227 239.113 585.326 247.995 591.191 253.75C596.172 258.62 602.619 261.055 610.532 261.055C622.319 261.055 631.893 258.592 639.253 253.667C639.751 253.667 640.36 254.082 641.079 254.912C642.463 256.572 643.154 258.011 643.154 259.229C643.154 261.885 639.834 265.288 633.193 269.438C625.557 274.198 616.647 276.577 606.465 276.577C593.184 276.577 582.752 272.344 575.171 263.877C567.7 255.576 563.965 244.398 563.965 230.342ZM582.393 216.396C598.33 215.622 612.912 214.598 626.138 213.325C626.746 195.728 620.659 186.929 607.876 186.929C600.737 186.929 594.899 189.696 590.361 195.229C586.211 200.321 583.555 207.376 582.393 216.396ZM730.163 204.526C730.882 205.965 731.242 207.57 731.242 209.341C731.242 211.056 731.132 212.495 730.91 213.657C730.744 214.819 730.467 215.843 730.08 216.729C729.084 218.831 727.811 219.883 726.262 219.883H672.224C671.615 218.223 671.311 216.59 671.311 214.985C671.311 213.325 671.394 211.914 671.56 210.752C671.781 209.59 672.085 208.538 672.473 207.598C673.469 205.55 674.631 204.526 675.959 204.526H730.163ZM800.736 275.415C799.63 275.138 797.859 275 795.424 275H768.944C763.632 275 760.229 274.059 758.734 272.178C758.126 271.458 757.821 270.628 757.821 269.688C757.821 267.363 758.264 265.648 759.149 264.541C760.478 264.984 761.972 265.205 763.632 265.205C765.347 265.205 766.62 264.513 767.45 263.13C768.336 261.746 768.751 259.173 768.695 255.41V201.123C768.695 195.921 767.727 192.684 765.79 191.411C765.015 190.913 763.992 190.664 762.719 190.664C761.446 190.664 760.422 190.858 759.647 191.245C758.928 191.632 758.319 191.909 757.821 192.075C757.379 192.241 756.991 192.241 756.659 192.075C756.327 191.854 755.995 191.549 755.663 191.162C754.833 190.277 754.418 189.364 754.418 188.423C754.418 187.427 754.75 186.403 755.414 185.352C756.133 184.245 757.268 183 758.817 181.616C760.367 180.177 762.138 178.877 764.13 177.715C768.612 175.114 773.095 173.813 777.577 173.813C782.502 173.813 785.463 176.94 786.459 183.193C786.791 185.075 787.012 187.012 787.123 189.004C795.424 182.419 804.112 177.826 813.188 175.225C816.508 174.284 819.717 173.813 822.816 173.813C835.987 173.813 844.315 179.015 847.802 189.419C856.435 182.557 865.206 177.826 874.115 175.225C877.491 174.284 880.922 173.813 884.408 173.813C887.895 173.813 891.243 174.284 894.452 175.225C897.717 176.165 900.512 177.687 902.836 179.79C907.927 184.328 910.473 191.245 910.473 200.542V256.24C910.473 260.778 912.022 263.6 915.121 264.707C916.007 265.039 917.058 265.316 918.275 265.537C919.493 265.758 920.6 266.035 921.596 266.367C922.592 266.644 923.367 266.976 923.92 267.363C924.861 268.083 925.331 269.245 925.331 270.85C925.331 272.786 924.888 274.308 924.003 275.415C922.896 275.138 921.125 275 918.69 275H892.211C886.898 275 883.495 274.059 882.001 272.178C881.392 271.458 881.088 270.628 881.088 269.688C881.088 267.363 881.531 265.648 882.416 264.541C883.744 264.984 885.211 265.205 886.815 265.205C888.42 265.205 889.638 264.679 890.468 263.628C891.353 262.521 891.851 260.501 891.962 257.568V206.436C891.962 197.028 889.167 191.771 883.578 190.664C881.863 190.332 879.815 190.166 877.436 190.166C875.111 190.166 872.566 190.47 869.799 191.079C867.087 191.632 864.486 192.407 861.996 193.403C857.182 195.34 852.976 197.803 849.379 200.791V256.24C849.379 260.833 850.928 263.656 854.027 264.707C854.913 265.039 855.964 265.316 857.182 265.537C858.399 265.758 859.478 266.035 860.419 266.367C861.415 266.644 862.19 266.976 862.743 267.363C863.684 268.083 864.154 269.245 864.154 270.85C864.154 272.842 863.739 274.364 862.909 275.415C861.802 275.138 860.032 275 857.597 275H831.117C825.805 275 822.401 274.059 820.907 272.178C820.299 271.458 819.994 270.628 819.994 269.688C819.994 267.308 820.409 265.592 821.239 264.541C822.623 264.984 824.117 265.205 825.722 265.205C827.326 265.205 828.544 264.624 829.374 263.462C830.259 262.3 830.757 260.169 830.868 257.07V206.436C830.868 197.028 828.074 191.771 822.484 190.664C820.769 190.332 818.694 190.166 816.259 190.166C813.824 190.166 811.168 190.498 808.29 191.162C805.412 191.826 802.673 192.712 800.072 193.818C795.092 195.866 790.803 198.467 787.206 201.621V256.24C787.206 260.778 788.783 263.6 791.938 264.707C792.768 265.039 793.791 265.316 795.009 265.537C796.226 265.758 797.333 266.035 798.329 266.367C799.325 266.644 800.1 266.976 800.653 267.363C801.594 268.083 802.064 269.245 802.064 270.85C802.064 272.786 801.622 274.308 800.736 275.415ZM942.115 230.342C942.115 223.646 942.807 217.697 944.19 212.495C945.574 207.293 947.428 202.645 949.752 198.55C952.132 194.399 954.898 190.775 958.053 187.676C961.262 184.577 964.693 182.004 968.346 179.956C975.54 175.861 982.623 173.813 989.596 173.813C996.568 173.813 1002.16 175.059 1006.36 177.549C1010.57 179.984 1014 183.249 1016.66 187.344C1021.58 195.146 1024.04 205.522 1024.04 218.472C1024.04 223.286 1022.02 225.749 1017.98 225.859L960.045 227.104C960.377 239.113 963.476 247.995 969.342 253.75C974.322 258.62 980.769 261.055 988.683 261.055C1000.47 261.055 1010.04 258.592 1017.4 253.667C1017.9 253.667 1018.51 254.082 1019.23 254.912C1020.61 256.572 1021.3 258.011 1021.3 259.229C1021.3 261.885 1017.98 265.288 1011.34 269.438C1003.71 274.198 994.798 276.577 984.615 276.577C971.334 276.577 960.903 272.344 953.321 263.877C945.851 255.576 942.115 244.398 942.115 230.342ZM960.543 216.396C976.48 215.622 991.062 214.598 1004.29 213.325C1004.9 195.728 998.81 186.929 986.026 186.929C978.888 186.929 973.049 189.696 968.512 195.229C964.361 200.321 961.705 207.376 960.543 216.396ZM1114.12 264.624C1105.55 272.648 1096.11 276.66 1085.82 276.66C1074.47 276.66 1065.23 272.786 1058.09 265.039C1050.35 256.517 1046.47 244.757 1046.47 229.761C1046.47 212.882 1051.84 199.159 1062.58 188.589C1072.59 178.739 1084.43 173.813 1098.1 173.813C1103.58 173.813 1108.84 174.727 1113.88 176.553V152.563C1113.88 148.69 1113.49 146.227 1112.71 145.176C1111.44 143.405 1109.36 142.52 1106.49 142.52C1105.27 142.52 1104.05 142.658 1102.83 142.935C1101.67 143.156 1100.84 143.156 1100.34 142.935C1099.9 142.658 1099.54 142.298 1099.27 141.855C1098.16 140.029 1099.54 137.705 1103.42 134.883C1109.5 130.4 1115.51 128.159 1121.43 128.159C1127.68 128.159 1131.25 131.562 1132.14 138.369C1132.36 140.417 1132.47 142.575 1132.47 144.844V241.216C1132.47 249.738 1132.8 255.05 1133.46 257.153C1134.13 259.256 1134.9 260.64 1135.79 261.304C1136.73 261.912 1137.89 262.217 1139.28 262.217C1140.66 262.217 1141.79 261.995 1142.68 261.553L1145.17 260.474C1145.89 260.308 1146.52 260.64 1147.08 261.47C1148.24 263.185 1148.41 264.735 1147.58 266.118C1146.75 267.502 1145.5 268.83 1143.84 270.103C1142.18 271.375 1140.33 272.482 1138.28 273.423C1129.31 277.463 1122.62 277.546 1118.19 273.672C1116.03 271.79 1114.68 268.774 1114.12 264.624ZM1113.88 193.403C1108.45 189.253 1102.14 187.178 1094.95 187.178C1086.32 187.178 1079.32 190.36 1073.95 196.724C1068.19 203.53 1065.32 212.799 1065.32 224.531C1065.32 243.18 1070.63 254.691 1081.25 259.062C1084.57 260.391 1087.78 261.055 1090.88 261.055C1094.04 261.055 1096.66 260.806 1098.77 260.308C1100.87 259.81 1102.83 259.146 1104.66 258.315C1108.31 256.655 1111.38 254.635 1113.88 252.256V193.403ZM1184.78 158.374C1182.9 158.374 1181.16 158.097 1179.55 157.544C1178 156.935 1176.65 156.077 1175.48 154.971C1173.05 152.646 1171.83 149.52 1171.83 145.591C1171.83 141.828 1173.27 138.646 1176.15 136.045C1178.91 133.444 1182.23 132.144 1186.11 132.144C1189.98 132.144 1193.08 133.306 1195.41 135.63C1197.73 137.954 1198.89 141.108 1198.89 145.093C1198.89 148.856 1197.51 152.038 1194.74 154.639C1192.03 157.129 1188.71 158.374 1184.78 158.374ZM1179.72 275C1171.19 275 1166.93 273.063 1166.93 269.189C1166.93 267.197 1167.38 265.648 1168.26 264.541C1169.59 264.984 1170.81 265.205 1171.91 265.205C1177.06 265.205 1179.58 261.94 1179.47 255.41V199.795C1179.47 195.921 1178.91 193.237 1177.81 191.743C1176.76 190.194 1174.85 189.419 1172.08 189.419C1170.03 189.419 1168.18 189.668 1166.52 190.166C1165.52 190.277 1164.8 189.502 1164.36 187.842C1163.97 186.348 1164.19 185.047 1165.02 183.94C1165.85 182.778 1167.13 181.589 1168.84 180.371C1170.61 179.098 1172.55 177.992 1174.65 177.051C1179.19 174.893 1182.98 173.813 1186.03 173.813C1189.07 173.813 1191.31 174.256 1192.75 175.142C1194.24 176.027 1195.38 177.217 1196.15 178.711C1197.37 181.146 1197.98 185.075 1197.98 190.498V256.821C1198.14 261.193 1199.72 263.849 1202.71 264.79C1203.54 265.067 1204.56 265.316 1205.78 265.537C1207 265.758 1208.08 266.035 1209.02 266.367C1210.01 266.644 1210.79 266.976 1211.34 267.363C1212.28 268.083 1212.75 269.245 1212.75 270.85C1212.75 272.842 1212.34 274.364 1211.51 275.415C1210.35 275.138 1208.58 275 1206.2 275H1179.72ZM1288.89 204.111L1288.97 201.123C1288.97 200.072 1288.72 198.301 1288.22 195.811C1287.73 193.265 1286.12 191.19 1283.41 189.585C1280.75 187.98 1277.35 187.178 1273.2 187.178C1269.11 187.178 1265.45 188.229 1262.24 190.332C1259.09 192.38 1256.52 195.146 1254.52 198.633C1250.76 205.273 1248.88 214.155 1248.88 225.278C1248.88 235.793 1251.42 244.342 1256.52 250.928C1261.72 257.679 1268.58 261.055 1277.1 261.055C1284.85 261.055 1292.26 258.924 1299.35 254.663C1301.06 253.612 1302.39 252.699 1303.33 251.924C1303.89 251.924 1304.52 252.367 1305.24 253.252C1306.62 254.857 1307.32 256.157 1307.32 257.153C1307.32 258.094 1306.93 259.201 1306.15 260.474C1305.38 261.691 1304.25 263.019 1302.75 264.458C1301.31 265.841 1299.57 267.253 1297.52 268.691C1295.47 270.13 1293.18 271.431 1290.63 272.593C1284.82 275.249 1278.87 276.577 1272.79 276.577C1266.7 276.577 1261 275.553 1255.69 273.506C1250.43 271.403 1245.89 268.332 1242.07 264.292C1233.88 255.715 1229.79 243.927 1229.79 228.931C1229.79 211.886 1234.99 198.19 1245.39 187.842C1254.86 178.49 1265.78 173.813 1278.18 173.813C1286.32 173.813 1293.09 175.557 1298.52 179.043C1304.22 182.695 1307.07 187.51 1307.07 193.486C1307.07 196.751 1306.35 199.214 1304.91 200.874C1302.42 203.807 1299.51 205.273 1296.19 205.273C1292.93 205.273 1290.49 204.886 1288.89 204.111ZM1326.92 229.18C1326.92 222.428 1327.59 216.369 1328.92 211.001C1330.24 205.633 1332.07 200.902 1334.39 196.807C1336.72 192.712 1339.46 189.225 1342.61 186.348C1345.77 183.415 1349.14 181.035 1352.74 179.209C1359.77 175.612 1367.49 173.813 1375.9 173.813C1386.69 173.813 1395.85 177.743 1403.37 185.601C1411.73 194.233 1415.91 205.633 1415.91 219.8C1415.91 238.394 1410.84 252.865 1400.72 263.213C1391.92 272.122 1381.38 276.577 1369.09 276.577C1356.25 276.577 1345.96 272.067 1338.21 263.047C1330.69 254.359 1326.92 243.07 1326.92 229.18ZM1373.99 263.047C1377.7 263.047 1381.02 262.189 1383.95 260.474C1386.88 258.703 1389.37 256.296 1391.42 253.252C1395.51 246.943 1397.56 238.753 1397.56 228.682C1397.56 217.614 1395.4 208.206 1391.09 200.459C1386.22 191.549 1379.22 187.095 1370.09 187.095C1362.73 187.095 1356.83 189.917 1352.41 195.562C1347.7 201.538 1345.35 209.894 1345.35 220.63C1345.35 234.077 1348.31 244.702 1354.23 252.505C1359.54 259.533 1366.13 263.047 1373.99 263.047ZM1483.24 275.415C1482.08 275.138 1480.31 275 1477.93 275H1449.79C1444.48 275 1441.08 274.059 1439.58 272.178C1438.97 271.458 1438.67 270.628 1438.67 269.688C1438.67 267.363 1439.11 265.648 1440 264.541C1441.32 264.984 1442.54 265.205 1443.65 265.205C1444.81 265.205 1445.78 265.067 1446.55 264.79C1447.33 264.458 1447.94 263.932 1448.38 263.213C1449.15 261.885 1449.54 259.284 1449.54 255.41V201.123C1449.54 195.921 1448.57 192.684 1446.64 191.411C1445.86 190.913 1444.84 190.664 1443.57 190.664C1442.29 190.664 1441.27 190.858 1440.49 191.245C1439.77 191.632 1439.17 191.909 1438.67 192.075C1438.23 192.241 1437.84 192.241 1437.51 192.075C1437.17 191.854 1436.84 191.549 1436.51 191.162C1435.68 190.166 1435.26 189.225 1435.26 188.34C1435.26 187.399 1435.6 186.403 1436.26 185.352C1436.98 184.245 1438.11 183 1439.66 181.616C1441.21 180.177 1442.98 178.877 1444.98 177.715C1449.46 175.114 1453.94 173.813 1458.42 173.813C1463.51 173.813 1466.53 177.134 1467.47 183.774C1467.75 185.711 1467.91 187.731 1467.97 189.834C1476.05 182.695 1484.38 177.798 1492.96 175.142C1495.83 174.256 1498.43 173.813 1500.76 173.813C1503.14 173.813 1505.07 174.146 1506.57 174.81C1508.12 175.474 1509.34 176.387 1510.22 177.549C1511.88 179.818 1512.71 182.723 1512.71 186.265C1512.71 189.806 1512.54 192.629 1512.21 194.731C1511.88 196.834 1511.47 198.688 1510.97 200.293C1509.97 203.558 1509.03 205.633 1508.15 206.519C1506.6 208.123 1504.52 208.926 1501.92 208.926C1499.26 208.926 1497.94 208.151 1497.94 206.602C1497.94 200.68 1497.69 196.89 1497.19 195.229C1496.25 192.186 1494.48 190.664 1491.88 190.664C1489.28 190.664 1486.92 190.968 1484.82 191.577C1482.72 192.131 1480.67 192.905 1478.68 193.901C1474.64 195.894 1471.1 198.467 1468.05 201.621V256.821C1468.22 261.193 1470.13 263.849 1473.78 264.79C1474.83 265.067 1476.02 265.316 1477.35 265.537C1478.68 265.758 1479.81 266.035 1480.75 266.367C1481.75 266.644 1482.52 266.976 1483.08 267.363C1484.02 268.083 1484.49 269.245 1484.49 270.85C1484.49 272.842 1484.07 274.364 1483.24 275.415ZM1596.23 264.624C1587.66 272.648 1578.22 276.66 1567.93 276.66C1556.58 276.66 1547.34 272.786 1540.2 265.039C1532.46 256.517 1528.58 244.757 1528.58 229.761C1528.58 212.882 1533.95 199.159 1544.69 188.589C1554.7 178.739 1566.54 173.813 1580.21 173.813C1585.69 173.813 1590.95 174.727 1595.98 176.553V152.563C1595.98 148.69 1595.6 146.227 1594.82 145.176C1593.55 143.405 1591.47 142.52 1588.6 142.52C1587.38 142.52 1586.16 142.658 1584.94 142.935C1583.78 143.156 1582.95 143.156 1582.45 142.935C1582.01 142.658 1581.65 142.298 1581.38 141.855C1580.27 140.029 1581.65 137.705 1585.53 134.883C1591.61 130.4 1597.62 128.159 1603.54 128.159C1609.79 128.159 1613.36 131.562 1614.25 138.369C1614.47 140.417 1614.58 142.575 1614.58 144.844V241.216C1614.58 249.738 1614.91 255.05 1615.57 257.153C1616.24 259.256 1617.01 260.64 1617.9 261.304C1618.84 261.912 1620 262.217 1621.38 262.217C1622.77 262.217 1623.9 261.995 1624.79 261.553L1627.28 260.474C1628 260.308 1628.63 260.64 1629.19 261.47C1630.35 263.185 1630.52 264.735 1629.69 266.118C1628.86 267.502 1627.61 268.83 1625.95 270.103C1624.29 271.375 1622.44 272.482 1620.39 273.423C1611.42 277.463 1604.73 277.546 1600.3 273.672C1598.14 271.79 1596.79 268.774 1596.23 264.624ZM1595.98 193.403C1590.56 189.253 1584.25 187.178 1577.06 187.178C1568.43 187.178 1561.43 190.36 1556.06 196.724C1550.3 203.53 1547.42 212.799 1547.42 224.531C1547.42 243.18 1552.74 254.691 1563.36 259.062C1566.68 260.391 1569.89 261.055 1572.99 261.055C1576.15 261.055 1578.77 260.806 1580.88 260.308C1582.98 259.81 1584.94 259.146 1586.77 258.315C1590.42 256.655 1593.49 254.635 1595.98 252.256V193.403Z" fill="#0DCAF0"/>
<path d="M306.012 200.453L258.417 294.622C252.678 305.979 236.057 305.62 230.794 294.031L176.399 174.427L147.697 242.332L53.9979 242.285L222.485 414.723C234.577 427.092 254.348 427.092 266.45 414.723L434.936 242.285L327.865 242.29L306.012 200.453ZM442.406 29.2083C390.484 -15.2545 311.074 -7.22883 263.317 41.5685L244.501 60.8093L225.684 41.5685C177.927 -7.22883 98.5552 -15.2545 46.6051 29.2083C-8.25811 76.1886 -14.4952 156.729 26.9006 212H127.19L161.508 130.371C166.769 118.181 184.107 117.954 189.723 130.016L245.322 252.483L292.191 159.734C297.811 148.613 313.949 148.613 319.575 159.734L346.003 212.023H462.053C503.534 156.729 497.231 76.1886 442.406 29.2083Z" fill="#0DCAF0"/>
</svg>
